<svg xmlns="http://www.w3.org/2000/svg" viewBox="0 0 32 32" fill="none">
  <!-- Heavy-slant calligraphic J: top flourish (sharp left, broad, taper right), diagonal stem, bottom hook. -->
  <path
    fill="#000"
    d="M 6 7
       C 8 5.5  11 5.5  13.5 6.5
       C 15 7.5  15.8 9  16 11
       L 16.5 11.5  L 17.5 10.5
       C 18.5 9  19.5 7.5  20 6
       C 20.5 4.5  21.5 4  23 4.5
       C 24.5 5  25.5 6.5  25.5 8.5
       L 25.2 19
       C 25 21.2  25.8 23  27 23.5
       C 28.2 24  29 23  29 21
       C 29 19  28 17  26.5 16
       L 26 15.5
       C 24.5 16.5  23 16.3  22.3 15
       C 21.6 13.7  21.8 12  22.3 11
       L 22.5 8.5
       C 22.8 6.5  21.8 5  19.8 4.5
       C 17.8 4  15.5 4.5  14 5.5
       L 13 6   L 13 18
       C 12.8 20  11.5 21.5  9.5 21.8
       C 7.5 22.1  6 20.5  5.8 18.5
       C 5.6 16.5  6.5 14.5  8 13.5
       L 8.5 13
       C 10 14  11.5 13.8  12.2 12.5
       C 12.9 11.2  12.7 9.5  12 8.5
       L 11.5 6.5
       C 11.2 5.8  11.5 5.5  6 7
       Z"
  />
</svg>
